<?xml version="1.0" encoding="UTF-8"?>
<svg width="320px" height="180px" viewBox="0 0 1920 1080" version="1.1" xmlns="http://www.w3.org/2000/svg" xmlns:xlink="http://www.w3.org/1999/xlink">
    <title>MPASSid logo FI</title>
    <g id="MPASSid-logo-FI" stroke="none" stroke-width="1" fill="none" fill-rule="evenodd">
        <g id="Group-2" transform="translate(378.000000, 380.000000)">
            <g id="Group-3">
                <path d="M1010.13324,72.0021967 L998.306614,72.0021967 L998.306614,152.107615 L1010.13324,152.107615 L1010.13324,72.0021967 Z M1010.95454,36.0198848 L997.649579,36.0198848 L997.649579,49.207972 L1010.95454,49.207972 L1010.95454,36.0198848 Z" id="Shape" fill="#454850" fill-rule="nonzero"></path>
                <path d="M1099.81851,36.1827007 L1087.99188,36.1827007 L1087.99188,81.4455184 C1081.25727,73.1419079 1074.02989,71.0253013 1065.15992,71.0253013 C1056.78272,71.0253013 1049.7196,73.7931715 1045.44887,78.0263847 C1037.40019,86.1671792 1035.59335,99.1924505 1035.59335,112.054906 C1035.59335,124.917361 1037.40019,138.105448 1045.44887,146.083427 C1049.7196,150.31664 1056.78272,153.08451 1065.15992,153.08451 C1074.19415,153.08451 1081.25727,150.967904 1087.99188,142.664293 L1087.99188,152.107615 L1099.81851,152.107615 L1099.81851,36.1827007 Z M1067.6238,81.4455184 C1085.36374,81.4455184 1087.99188,96.4245803 1087.99188,112.054906 C1087.99188,127.685231 1085.36374,142.664293 1067.6238,142.664293 C1050.04812,142.664293 1047.41998,127.685231 1047.41998,112.054906 C1047.41998,96.4245803 1050.04812,81.4455184 1067.6238,81.4455184 Z" id="Shape" fill="#454850" fill-rule="nonzero"></path>
                <path d="M447.740323,39.5267957 C397.64484,38.4397334 359.845469,126.068754 346.96118,126.068754 C344.918529,126.068754 343.670634,116.448465 342.504409,109.072049 C337.675865,78.5313261 294.520447,72.1000521 299.69705,102.042728 C305.048826,132.998645 313.740864,163.878348 346.96118,163.878348 C390.832537,163.878348 416.610737,80.6972421 447.740323,80.6972421 C447.740323,62.5162286 447.740323,49.0118145 447.740323,39.5267957 Z" id="5" fill="#0041DC"></path>
                <path d="M344.651376,118.108413 C337.866182,99.6843853 341.046705,0 281.491283,0 C248.091841,33.4437292 267.11666,69.3210756 271.629563,56.9871333 C275.042227,47.6601862 278.49969,36.2177293 281.491283,36.2177293 C292.267204,36.2177293 294.456409,72.0794516 299.654095,102.028848 C305.027667,132.991714 313.755105,163.878348 347.110715,163.878348 C364.936338,163.878348 379.787033,150.253892 393.222719,134.031734 C359.991141,158.102214 352.464594,139.323864 344.651376,118.108413 Z" id="4" fill="#5BCA13"></path>
                <path d="M325.945676,33.0670896 C317.493694,14.2959804 304.03061,0 281.641836,0 C214.630801,0 218.201109,157.15947 210.61059,157.15947 C210.139043,157.15947 209.785267,142.955691 208.677019,135.237381 C205.347889,112.051893 154.621255,209.669227 210.61059,209.669227 C245.504097,209.669227 252.733784,155.439579 259.804041,108.952938 C264.381631,78.8554732 272.012498,53.4908383 277.855041,44.6996076 C289.983578,26.4498903 310.581232,6.44236295 325.945676,33.0670896 Z" id="3" fill="#0041DC"></path>
                <path d="M210.225886,146.120683 C208.440615,135.279694 204.576746,65.086436 154.541181,65.086436 C122.253709,65.086436 107.409089,91.8500794 94.9059899,127.91011 C69.0446634,202.496433 47.3200933,313.860662 15.5097972,302.291732 C15.5097972,302.291732 10.3398648,315.18942 0,340.984795 C7.69605362,343.78864 14.5410629,345.190563 20.5350279,345.190563 C70.821308,345.190563 94.9765923,271.518952 114.646305,205.678933 C130.163456,153.738696 143.927169,100.94154 152.866104,100.94154 C177.290707,100.94154 154.541181,209.764844 210.656257,209.764844 C233.867812,209.764844 244.865389,185.576435 251.708938,155.721472 C240.303633,179.9127 217.031209,187.445748 210.225886,146.120683 Z" id="2" fill="#5BCA13"></path>
                <path d="M199.511232,100.043322 C191.964075,81.7199179 178.572706,65.086436 154.260072,65.086436 C122.031331,65.086436 107.213714,91.8500794 94.7333571,127.91011 C68.9190721,202.496433 47.2340186,313.860662 15.4815851,302.291732 C15.4815851,302.291732 10.3210567,315.18942 0,340.984795 C7.6820546,343.78864 14.5146129,345.190563 20.497675,345.190563 C70.692485,345.190563 94.8038311,271.518952 114.437765,205.678933 C127.663402,161.328361 139.612922,120.262046 148.377689,109.207548 C155.64372,100.043322 178.572706,69.0186201 199.511232,100.043322 Z" id="1" fill="#0041DC"></path>
                <polygon id="Path" fill="#141414" fill-rule="nonzero" points="580.205267 36.9900336 571.49977 36.9900336 532.486246 117.512387 492.505444 36.9900336 483.799946 36.9900336 483.799946 152.114362 492.505444 152.114362 492.505444 57.2014676 527.972284 127.698949 536.677781 127.698949 571.49977 57.2014676 571.49977 152.114362 580.205267 152.114362"></polygon>
                <path d="M615.672108,36.9900336 L615.672108,152.114362 L624.377605,152.114362 L624.377605,103.283537 L657.748678,103.283537 C677.577866,103.283537 692.409454,91.1566767 692.409454,70.1367853 C692.409454,49.116894 677.577866,36.9900336 657.748678,36.9900336 L615.672108,36.9900336 Z M656.7814,44.7512243 C672.741478,44.7512243 683.703956,52.8357979 683.703956,70.1367853 C683.703956,87.4377728 672.741478,95.5223464 656.7814,95.5223464 L624.377605,95.5223464 L624.377605,44.7512243 L656.7814,44.7512243 Z" id="Shape" fill="#141414" fill-rule="nonzero"></path>
                <path d="M743.997585,36.9900336 L736.259365,36.9900336 L694.021583,152.114362 L703.371931,152.114362 L713.367132,124.141737 L766.889818,124.141737 L776.885019,152.114362 L786.235368,152.114362 L743.997585,36.9900336 Z M740.128475,48.6318196 L764.149199,116.380546 L716.107751,116.380546 L740.128475,48.6318196 Z" id="Shape" fill="#141414" fill-rule="nonzero"></path>
                <path d="M834.921667,36.0198848 C812.835498,36.0198848 799.293614,48.3084367 799.293614,67.5497218 C799.293614,76.7661357 802.356659,83.8805604 808.321537,88.8929961 C813.319137,93.2586658 820.090079,95.8457294 828.795576,97.1392611 L842.176248,99.2412503 C851.365384,100.696474 854.750855,101.828314 858.781178,105.385526 C863.133926,109.10443 865.068481,114.60194 865.068481,121.554673 C865.068481,136.59198 853.783578,145.32332 835.566519,145.32332 C821.863421,145.32332 813.319137,142.08949 803.001511,131.741236 L796.87542,137.885512 C807.354259,148.395458 818.155524,153.08451 835.08288,153.08451 C859.103604,153.08451 873.773979,140.634267 873.773979,121.23129 C873.773979,111.853185 870.066082,104.415377 863.939991,99.0795588 C858.619965,94.5521976 854.106003,92.7735914 843.465951,91.1566767 L830.08528,89.0546875 C823.636763,88.0845387 817.671885,85.8208581 813.641563,82.4253372 C809.61124,79.0298163 807.837898,73.8556892 807.837898,67.2263389 C807.837898,52.5124149 817.671885,43.4576925 834.438028,43.4576925 C847.979913,43.4576925 855.55692,47.6616708 862.327862,54.1293296 L867.970314,48.4701281 C858.136326,39.9004801 849.108403,36.0198848 834.921667,36.0198848 Z" id="Path" fill="#141414" fill-rule="nonzero"></path>
                <path d="M928.747581,36.0198848 C906.661412,36.0198848 893.119528,48.3084367 893.119528,67.5497218 C893.119528,76.7661357 896.182573,83.8805604 902.147451,88.8929961 C907.145051,93.2586658 913.915993,95.8457294 922.621491,97.1392611 L936.002162,99.2412503 C945.191298,100.696474 948.576769,101.828314 952.607092,105.385526 C956.959841,109.10443 958.894396,114.60194 958.894396,121.554673 C958.894396,136.59198 947.609492,145.32332 929.392433,145.32332 C915.689335,145.32332 907.145051,142.08949 896.827425,131.741236 L890.701334,137.885512 C901.180173,148.395458 911.981439,153.08451 928.908794,153.08451 C952.929518,153.08451 967.599893,140.634267 967.599893,121.23129 C967.599893,111.853185 963.891996,104.415377 957.765905,99.0795588 C952.445879,94.5521976 947.931918,92.7735914 937.291866,91.1566767 L923.911194,89.0546875 C917.462678,88.0845387 911.4978,85.8208581 907.467477,82.4253372 C903.437154,79.0298163 901.663812,73.8556892 901.663812,67.2263389 C901.663812,52.5124149 911.4978,43.4576925 928.263943,43.4576925 C941.805827,43.4576925 949.382834,47.6616708 956.153776,54.1293296 L961.796228,48.4701281 C951.962241,39.9004801 942.934317,36.0198848 928.747581,36.0198848 Z" id="Path" fill="#141414" fill-rule="nonzero"></path>
                <polygon id="Path" fill="#454850" fill-rule="nonzero" points="507.839695 183.101081 474.785041 183.101081 474.785041 187.401208 488.73844 187.401208 488.73844 228.125937 493.886296 228.125937 493.886296 187.401208 507.839695 187.401208"></polygon>
                <path d="M545.919598,182.960817 L541.166115,182.960817 L541.166115,212.588632 C541.166115,219.382272 536.850453,223.84846 530.345687,223.84846 C523.840921,223.84846 519.587804,219.382272 519.587804,212.588632 L519.587804,182.960817 L514.834321,182.960817 L514.834321,212.966057 C514.834321,221.898434 521.339088,228.125937 530.345687,228.125937 C539.352286,228.125937 545.919598,221.898434 545.919598,212.966057 L545.919598,182.960817 Z" id="Path" fill="#454850" fill-rule="nonzero"></path>
                <polygon id="Path" fill="#454850" fill-rule="nonzero" points="591.978816 183.101081 587.202859 183.101081 587.202859 219.083024 563.448753 183.101081 558.924162 183.101081 558.924162 228.125937 563.700119 228.125937 563.700119 192.01752 587.454225 228.125937 591.978816 228.125937"></polygon>
                <polygon id="Path" fill="#454850" fill-rule="nonzero" points="640.058314 183.101081 635.282357 183.101081 635.282357 219.083024 611.528251 183.101081 607.00366 183.101081 607.00366 228.125937 611.779617 228.125937 611.779617 192.01752 635.533723 228.125937 640.058314 228.125937"></polygon>
                <polygon id="Path" fill="#454850" fill-rule="nonzero" points="656.691079 183.101081 651.867314 183.101081 651.867314 228.125937 656.691079 228.125937"></polygon>
                <path d="M683.725713,182.960817 C674.762473,182.960817 669.231964,187.889055 669.231964,195.437369 C669.231964,199.05557 670.439776,201.800411 672.728263,203.796659 C674.762473,205.543377 677.432374,206.603884 680.992243,207.165329 L686.268476,207.913922 C689.510498,208.412984 690.78188,208.849663 692.180399,210.097319 C693.706057,211.407357 694.405317,213.278839 694.405317,215.649384 C694.405317,220.889537 690.336896,223.883909 683.662144,223.883909 C678.576618,223.883909 675.080319,222.761019 671.329743,219.080436 L668.087721,222.261957 C672.283279,226.441602 676.796684,228.125937 683.535005,228.125937 C693.006797,228.125937 699.172998,223.322464 699.172998,215.524619 C699.172998,211.844036 697.774478,208.849663 695.358853,206.791032 C693.324643,204.981932 691.354002,204.233339 687.158443,203.609511 L681.88221,202.798535 C679.530154,202.424239 677.368805,201.675646 675.970286,200.490373 C674.571766,199.305101 673.936075,197.496 673.936075,195.312604 C673.936075,190.321983 677.432374,187.015696 683.535005,187.015696 C688.239117,187.015696 691.354002,188.325734 694.087472,190.883428 L697.202356,187.826672 C693.324643,184.458003 689.510498,182.960817 683.725713,182.960817 Z" id="Path" fill="#454850" fill-rule="nonzero"></path>
                <polygon id="Path" fill="#454850" fill-rule="nonzero" points="736.21731 183.101081 703.162655 183.101081 703.162655 187.401208 717.116054 187.401208 717.116054 228.125937 722.26391 228.125937 722.26391 187.401208 736.21731 187.401208"></polygon>
                <path d="M754.907498,183.101081 L750.648326,183.101081 L733.212341,228.125937 L738.602856,228.125937 L742.396181,217.944755 L763.093094,217.944755 L766.886419,228.125937 L772.276933,228.125937 L754.907498,183.101081 Z M752.777912,189.930694 L761.562454,213.771102 L743.92682,213.771102 L752.777912,189.930694 Z" id="Shape" fill="#454850" fill-rule="nonzero"></path>
                <path d="M810.356836,182.960817 L805.603353,182.960817 L805.603353,212.588632 C805.603353,219.382272 801.287691,223.84846 794.782925,223.84846 C788.278159,223.84846 784.025042,219.382272 784.025042,212.588632 L784.025042,182.960817 L779.271559,182.960817 L779.271559,212.966057 C779.271559,221.898434 785.776325,228.125937 794.782925,228.125937 C803.789524,228.125937 810.356836,221.898434 810.356836,212.966057 L810.356836,182.960817 Z" id="Path" fill="#454850" fill-rule="nonzero"></path>
                <polygon id="Path" fill="#454850" fill-rule="nonzero" points="850.406117 183.101081 817.351462 183.101081 817.351462 187.401208 831.304862 187.401208 831.304862 228.125937 836.452718 228.125937 836.452718 187.401208 850.406117 187.401208"></polygon>
                <path d="M888.48602,182.960817 L883.732537,182.960817 L883.732537,212.588632 C883.732537,219.382272 879.416875,223.84846 872.912109,223.84846 C866.407343,223.84846 862.154226,219.382272 862.154226,212.588632 L862.154226,182.960817 L857.400743,182.960817 L857.400743,212.966057 C857.400743,221.898434 863.905509,228.125937 872.912109,228.125937 C881.918708,228.125937 888.48602,221.898434 888.48602,212.966057 L888.48602,182.960817 Z" id="Path" fill="#454850" fill-rule="nonzero"></path>
                <polygon id="Path" fill="#454850" fill-rule="nonzero" points="940.555175 183.101081 935.688111 183.101081 921.215 215.035845 906.357647 183.101081 901.490583 183.101081 901.490583 228.125937 906.357647 228.125937 906.357647 193.914635 919.03763 221.043375 923.20025 221.043375 935.688111 193.914635 935.688111 228.125937 940.555175 228.125937"></polygon>
                <polygon id="Path" fill="#454850" fill-rule="nonzero" points="960.192909 183.101081 955.369143 183.101081 955.369143 228.125937 960.192909 228.125937"></polygon>
                <polygon id="Path" fill="#454850" fill-rule="nonzero" points="1006.66448 183.101081 1001.88853 183.101081 1001.88853 219.083024 978.134422 183.101081 973.60983 183.101081 973.60983 228.125937 978.385788 228.125937 978.385788 192.01752 1002.13989 228.125937 1006.66448 228.125937"></polygon>
                <polygon id="Path" fill="#454850" fill-rule="nonzero" points="1048.73405 183.101081 1021.68933 183.101081 1021.68933 228.125937 1048.73405 228.125937 1048.73405 223.82581 1026.33955 223.82581 1026.33955 207.573861 1045.42994 207.573861 1045.42994 203.273734 1026.33955 203.273734 1026.33955 187.401208 1048.73405 187.401208"></polygon>
                <polygon id="Path" fill="#454850" fill-rule="nonzero" points="1093.80857 183.101081 1089.03262 183.101081 1089.03262 219.083024 1065.27851 183.101081 1060.75392 183.101081 1060.75392 228.125937 1065.52988 228.125937 1065.52988 192.01752 1089.28398 228.125937 1093.80857 228.125937"></polygon>
            </g>
            <g id="Ribbon-thicker"></g>
            <g id="MPASS" transform="translate(484.573503, 37.023593)"></g>
        </g>
    </g>
</svg>