<?xml version="1.0" encoding="UTF-8"?>
<svg width="1920px" height="1080px" viewBox="0 0 1920 1080" version="1.1" xmlns="http://www.w3.org/2000/svg" xmlns:xlink="http://www.w3.org/1999/xlink">
    <title>MPASSid logo EN</title>
    <g id="MPASSid-logo-EN" stroke="none" stroke-width="1" fill="none" fill-rule="evenodd">
        <g id="Group" transform="translate(378.000000, 380.000000)">
            <g id="Group-2" transform="translate(0.000000, 0.000000)">
                <g id="id" transform="translate(999.761975, 35.473712)" fill="#454850" fill-rule="nonzero">
                    <path d="M12.3273096,35.7496545 L0.648805767,35.7496545 L0.648805767,115.337121 L12.3273096,115.337121 L12.3273096,35.7496545 Z M13.1383168,0 L0,0 L0,13.1028146 L13.1383168,13.1028146 L13.1383168,0 Z" id="Shape"></path>
                    <path d="M100.889297,0.161763143 L89.210793,0.161763143 L89.210793,45.1319168 C82.5605339,36.8819965 75.4236704,34.7790757 66.6647926,34.7790757 C58.392519,34.7790757 51.4178571,37.5290491 47.2006196,41.7348908 C39.2527489,49.823048 37.4685331,62.7640994 37.4685331,75.5433876 C37.4685331,88.3226759 39.2527489,101.42549 47.2006196,109.351884 C51.4178571,113.557726 58.392519,116.3077 66.6647926,116.3077 C75.5858719,116.3077 82.5605339,114.204779 89.210793,105.954858 L89.210793,115.337121 L100.889297,115.337121 L100.889297,0.161763143 Z M69.0978142,45.1319168 C86.6155699,45.1319168 89.210793,60.0141259 89.210793,75.5433876 C89.210793,91.0726493 86.6155699,105.954858 69.0978142,105.954858 C51.7422599,105.954858 49.1470369,91.0726493 49.1470369,75.5433876 C49.1470369,60.0141259 51.7422599,45.1319168 69.0978142,45.1319168 Z" id="Shape"></path>
                </g>
                <g id="Ribbon-thicker">
                    <path d="M449.297994,39.4785493 C399.02823,38.3928138 361.097357,125.914875 348.168244,125.914875 C346.118487,125.914875 344.86625,116.306328 343.695969,108.938916 C338.850626,78.4354706 295.545071,72.0120467 300.739684,101.918174 C306.110079,132.836307 314.832356,163.678318 348.168244,163.678318 C392.192228,163.678318 418.060109,80.5987429 449.297994,80.5987429 C449.297994,62.4399211 449.297994,48.9519906 449.297994,39.4785493 Z" id="5" fill="#0041DC"></path>
                    <path d="M345.850404,117.96425 C339.041605,99.5627104 342.233193,0 282.47058,0 C248.954943,33.4029077 268.045948,69.2364621 272.574551,56.9175747 C275.999088,47.6020121 279.468579,36.1735219 282.47058,36.1735219 C293.28399,36.1735219 295.480812,71.9914713 300.69658,101.904312 C306.088846,132.829384 314.846646,163.678318 348.3183,163.678318 C366.205937,163.678318 381.108296,150.070492 394.590725,133.868135 C361.243536,157.909234 353.690804,139.153805 345.850404,117.96425 Z" id="4" fill="#5BCA13"></path>
                    <path d="M327.079628,33.0267279 C318.598242,14.2785307 305.088321,0 282.621657,0 C215.377493,0 218.960222,156.967641 211.343296,156.967641 C210.870109,156.967641 210.515101,142.781199 209.402998,135.07231 C206.062286,111.915122 155.159177,209.461805 211.343296,209.461805 C246.358196,209.461805 253.613035,155.249849 260.707888,108.81995 C265.301404,78.7592221 272.958819,53.4255473 278.821688,44.6450472 C290.992419,26.4176055 311.661731,6.43449939 327.079628,33.0267279 Z" id="3" fill="#0041DC"></path>
                    <path d="M210.957253,145.942328 C209.165772,135.114572 205.288461,65.0069914 155.078823,65.0069914 C122.679025,65.0069914 107.782761,91.7379671 95.236164,127.753983 C69.2848671,202.249266 47.484718,313.477564 15.5637551,301.922755 C15.5637551,301.922755 10.3758368,314.804699 0,340.568588 C7.72282789,343.369011 14.5916507,344.769222 20.6064684,344.769222 C71.0676925,344.769222 95.307012,271.187536 115.045155,205.427881 C130.61629,153.551042 144.427886,100.818331 153.397919,100.818331 C177.907495,100.818331 155.078823,209.508804 211.389122,209.508804 C234.681429,209.508804 245.717266,185.34992 252.584623,155.531398 C241.13964,179.693098 217.786252,187.216951 210.957253,145.942328 Z" id="2" fill="#5BCA13"></path>
                    <path d="M200.205324,99.9212085 C192.631911,81.6201705 179.193953,65.0069914 154.796737,65.0069914 C122.455873,65.0069914 107.586706,91.7379671 95.0629307,127.753983 C69.1588388,202.249266 47.3983439,313.477564 15.5354449,301.922755 C15.5354449,301.922755 10.3569632,314.804699 0,340.568588 C7.70878016,343.369011 14.5651087,344.769222 20.5689855,344.769222 C70.9384213,344.769222 95.1336498,271.187536 114.835889,205.427881 C128.107538,161.131443 140.09863,120.115254 148.89389,109.074249 C156.185198,99.9212085 179.193953,68.9343759 200.205324,99.9212085 Z" id="1" fill="#0041DC"></path>
                </g>
                <g id="MPASS" transform="translate(481.366167, 34.664896)" fill="#141414" fill-rule="nonzero">
                    <polygon id="Path" points="96.9964622 0.970578856 88.2375843 0.970578856 48.9848354 81.5286239 8.75887786 0.970578856 0 0.970578856 0 116.145936 8.75887786 116.145936 8.75887786 21.1909717 44.4431951 91.7197019 53.2020729 91.7197019 88.2375843 21.1909717 88.2375843 116.145936 96.9964622 116.145936"></polygon>
                    <path d="M132.680779,0.970578856 L132.680779,116.145936 L141.439657,116.145936 L141.439657,67.2934674 L175.015356,67.2934674 C194.966133,67.2934674 209.888666,55.1612317 209.888666,34.1320231 C209.888666,13.1028146 194.966133,0.970578856 175.015356,0.970578856 L132.680779,0.970578856 Z M174.042147,8.73520971 C190.10009,8.73520971 201.129788,16.8233668 201.129788,34.1320231 C201.129788,51.4406794 190.10009,59.5288365 174.042147,59.5288365 L141.439657,59.5288365 L141.439657,8.73520971 L174.042147,8.73520971 Z" id="Shape"></path>
                    <path d="M261.793127,0.970578856 L254.007458,0.970578856 L211.51068,116.145936 L220.918364,116.145936 L230.974853,88.1609128 L284.825732,88.1609128 L294.882221,116.145936 L304.289905,116.145936 L261.793127,0.970578856 Z M257.900292,12.6175251 L282.068307,80.3962819 L233.732278,80.3962819 L257.900292,12.6175251 Z" id="Shape"></path>
                    <path d="M353.27474,0 C331.053143,0 317.428222,12.2939988 317.428222,31.5438128 C317.428222,40.764312 320.510049,47.8818902 326.511502,52.8965477 C331.539747,57.2641525 338.352208,59.8523628 347.111085,61.1464679 L360.573805,63.2493888 C369.819287,64.7052571 373.225518,65.8375991 377.280554,69.3963882 C381.659993,73.1169405 383.60641,78.6168874 383.60641,85.5727025 C383.60641,100.616675 372.252309,109.351884 353.923546,109.351884 C340.136423,109.351884 331.539747,106.116622 321.158855,95.7637805 L314.9952,101.91078 C325.538294,112.425384 336.40579,117.116515 353.436942,117.116515 C377.604957,117.116515 392.365288,104.660753 392.365288,85.2491762 C392.365288,75.8669139 388.634655,68.4258094 382.471,63.0876257 C377.118352,58.5582577 372.576712,56.7788631 361.871417,55.1612317 L348.408697,53.0583108 C341.920639,52.0877319 335.919186,49.823048 331.86415,46.426022 C327.809114,43.028996 326.024898,37.8525754 326.024898,31.2202865 C326.024898,16.4998406 335.919186,7.44110456 352.788136,7.44110456 C366.413057,7.44110456 374.036525,11.6469463 380.848985,18.117472 L386.526036,12.455762 C376.631748,3.88231542 367.548467,0 353.27474,0 Z" id="Path"></path>
                    <path d="M447.675979,0 C425.454382,0 411.829461,12.2939988 411.829461,31.5438128 C411.829461,40.764312 414.911288,47.8818902 420.912741,52.8965477 C425.940986,57.2641525 432.753447,59.8523628 441.512325,61.1464679 L454.975044,63.2493888 C464.220526,64.7052571 467.626757,65.8375991 471.681793,69.3963882 C476.061232,73.1169405 478.007649,78.6168874 478.007649,85.5727025 C478.007649,100.616675 466.653548,109.351884 448.324785,109.351884 C434.537663,109.351884 425.940986,106.116622 415.560094,95.7637805 L409.396439,101.91078 C419.939533,112.425384 430.807029,117.116515 447.838181,117.116515 C472.006196,117.116515 486.766527,104.660753 486.766527,85.2491762 C486.766527,75.8669139 483.035894,68.4258094 476.872239,63.0876257 C471.519591,58.5582577 466.977951,56.7788631 456.272656,55.1612317 L442.809936,53.0583108 C436.321878,52.0877319 430.320425,49.823048 426.265389,46.426022 C422.210353,43.028996 420.426137,37.8525754 420.426137,31.2202865 C420.426137,16.4998406 430.320425,7.44110456 447.189375,7.44110456 C460.814296,7.44110456 468.437764,11.6469463 475.250224,18.117472 L480.927275,12.455762 C471.032987,3.88231542 461.949706,0 447.675979,0 Z" id="Path"></path>
                </g>
            </g>
            <g id="IDENTIFICATION" transform="translate(483.982032, 181.629212)" fill="#454850" fill-rule="nonzero">
                <polygon id="Path" points="4.92875262 0.396583451 0 0.396583451 0 47.4578197 4.92875262 47.4578197"></polygon>
                <path d="M18.2882663,0.396583451 L18.2882663,47.4578197 L34.1121563,47.4578197 C39.3003169,47.4578197 43.1265854,45.9375831 46.2394818,42.5005265 C50.3251583,38.0059141 50.3251583,31.1318009 50.3251583,23.9272016 C50.3251583,16.7226022 50.3251583,9.84848904 46.2394818,5.35387659 C43.1265854,1.91682001 39.3003169,0.396583451 34.1121563,0.396583451 L18.2882663,0.396583451 Z M33.2690802,4.8911959 C36.7710886,4.8911959 40.013689,5.6843628 42.3483613,8.32825248 C45.3315537,11.5670173 45.3964057,17.3835746 45.3964057,23.9272016 C45.3964057,30.4708285 45.3315537,36.2873858 42.3483613,39.5261506 C40.013689,42.1700403 36.7710886,42.9632072 33.2690802,42.9632072 L23.2170189,42.9632072 L23.2170189,4.8911959 L33.2690802,4.8911959 Z" id="Shape"></path>
                <polygon id="Path" points="90.5982554 0.396583451 61.9336678 0.396583451 61.9336678 47.4578197 90.5982554 47.4578197 90.5982554 42.9632072 66.8624204 42.9632072 66.8624204 25.9762161 87.0962469 25.9762161 87.0962469 21.4816036 66.8624204 21.4816036 66.8624204 4.8911959 90.5982554 4.8911959"></polygon>
                <polygon id="Path" points="134.957029 0.396583451 130.028276 0.396583451 130.028276 38.0059141 105.514217 0.396583451 100.844873 0.396583451 100.844873 47.4578197 105.773625 47.4578197 105.773625 9.71629456 130.287684 47.4578197 134.957029 47.4578197"></polygon>
                <polygon id="Path" points="175.230126 0.396583451 143.582346 0.396583451 143.582346 4.8911959 156.94186 4.8911959 156.94186 47.4578197 161.870612 47.4578197 161.870612 4.8911959 175.230126 4.8911959"></polygon>
                <polygon id="Path" points="188.784196 0.396583451 183.855443 0.396583451 183.855443 47.4578197 188.784196 47.4578197"></polygon>
                <polygon id="Path" points="230.808297 0.396583451 202.143709 0.396583451 202.143709 47.4578197 207.072462 47.4578197 207.072462 26.7032857 227.306289 26.7032857 227.306289 22.2086733 207.072462 22.2086733 207.072462 4.8911959 230.808297 4.8911959"></polygon>
                <polygon id="Path" points="244.686627 0.396583451 239.757874 0.396583451 239.757874 47.4578197 244.686627 47.4578197"></polygon>
                <path d="M272.443286,0 C267.644238,0 263.753117,1.71852829 260.899629,4.62680693 C256.554544,9.05532214 256.295136,13.1533511 256.295136,23.9272016 C256.295136,34.701052 256.554544,38.799081 260.899629,43.2275962 C263.753117,46.1358748 267.644238,47.8544031 272.443286,47.8544031 C280.744343,47.8544031 286.840432,42.632721 288.461732,33.8417878 L283.403276,33.8417878 C282.171087,39.6583451 278.215115,43.3597907 272.443286,43.3597907 C269.33039,43.3597907 266.606605,42.2361376 264.466489,40.0549286 C261.548149,37.0144554 261.223889,33.5773989 261.223889,23.9272016 C261.223889,14.2770042 261.548149,10.8399477 264.466489,7.79947454 C266.606605,5.61826556 269.33039,4.49461245 272.443286,4.49461245 C278.215115,4.49461245 282.171087,8.19605799 283.403276,14.0126153 L288.461732,14.0126153 C286.840432,5.22168211 280.809195,0 272.443286,0 Z" id="Path"></path>
                <path d="M313.948571,0.396583451 L309.798043,0.396583451 L292.806817,47.4578197 L298.059829,47.4578197 L301.756394,36.8161637 L321.925368,36.8161637 L325.621933,47.4578197 L330.874945,47.4578197 L313.948571,0.396583451 Z M311.873307,7.53508557 L320.433772,32.4537458 L303.24799,32.4537458 L311.873307,7.53508557 Z" id="Shape"></path>
                <polygon id="Path" points="361.225685 0.396583451 329.577905 0.396583451 329.577905 4.8911959 342.937419 4.8911959 342.937419 47.4578197 347.866172 47.4578197 347.866172 4.8911959 361.225685 4.8911959"></polygon>
                <polygon id="Path" points="374.779755 0.396583451 369.851002 0.396583451 369.851002 47.4578197 374.779755 47.4578197"></polygon>
                <path d="M402.536414,0 C397.737366,0 393.846245,1.71852829 390.992757,4.62680693 C386.647672,9.05532214 386.388264,13.1533511 386.388264,23.9272016 C386.388264,34.701052 386.647672,38.799081 390.992757,43.2275962 C393.846245,46.1358748 397.737366,47.8544031 402.536414,47.8544031 C407.335463,47.8544031 411.161732,46.1358748 414.01522,43.2275962 C418.360304,38.799081 418.684565,34.701052 418.684565,23.9272016 C418.684565,13.1533511 418.360304,9.05532214 414.01522,4.62680693 C411.161732,1.71852829 407.335463,0 402.536414,0 Z M402.536414,4.49461245 C405.649311,4.49461245 408.373095,5.61826556 410.513211,7.79947454 C413.431552,10.8399477 413.755812,14.2770042 413.755812,23.9272016 C413.755812,33.5773989 413.431552,37.0144554 410.513211,40.0549286 C408.373095,42.2361376 405.649311,43.3597907 402.536414,43.3597907 C399.423518,43.3597907 396.699734,42.2361376 394.559617,40.0549286 C391.641277,37.0144554 391.317017,33.5773989 391.317017,23.9272016 C391.317017,14.2770042 391.641277,10.8399477 394.559617,7.79947454 C396.699734,5.61826556 399.423518,4.49461245 402.536414,4.49461245 Z" id="Shape"></path>
                <polygon id="Path" points="464.40523 0.396583451 459.476478 0.396583451 459.476478 38.0059141 434.962419 0.396583451 430.293074 0.396583451 430.293074 47.4578197 435.221827 47.4578197 435.221827 9.71629456 459.735886 47.4578197 464.40523 47.4578197"></polygon>
            </g>
        </g>
    </g>
</svg>