<?xml version="1.0" encoding="UTF-8"?>
<svg width="1920px" height="1080px" viewBox="0 0 1920 1080" version="1.1" xmlns="http://www.w3.org/2000/svg" xmlns:xlink="http://www.w3.org/1999/xlink">
    <title>MPASSid logo SV</title>
    <g id="MPASSid-logo-SV" stroke="none" stroke-width="1" fill="none" fill-rule="evenodd">
        <g id="Group" transform="translate(378.000000, 380.000000)">
            <g id="Group-2" transform="translate(0.000000, -0.000000)">
                <g id="id" transform="translate(997.649579, 33.226545)" fill="#454850" fill-rule="nonzero">
                    <path d="M12.4836638,36.2093296 L0.657034938,36.2093296 L0.657034938,116.820145 L12.4836638,116.820145 L12.4836638,36.2093296 Z M13.3049575,0 L0,0 L0,13.2712928 L13.3049575,13.2712928 L13.3049575,0 Z" id="Shape"></path>
                    <path d="M102.168933,0.163843121 L90.3423039,0.163843121 L90.3423039,45.7122306 C83.6076958,37.3562315 76.3803115,35.2262709 67.5103398,35.2262709 C59.1331444,35.2262709 52.0700188,38.011604 47.7992917,42.2715251 C39.7506137,50.4636811 37.9437676,63.5711308 37.9437676,76.5147373 C37.9437676,89.4583438 39.7506137,102.729637 47.7992917,110.757949 C52.0700188,115.017871 59.1331444,117.803204 67.5103398,117.803204 C76.5445702,117.803204 83.6076958,115.673243 90.3423039,107.317244 L90.3423039,116.820145 L102.168933,116.820145 L102.168933,0.163843121 Z M69.9742208,45.7122306 C87.7141642,45.7122306 90.3423039,60.7857977 90.3423039,76.5147373 C90.3423039,92.2436769 87.7141642,107.317244 69.9742208,107.317244 C52.3985363,107.317244 49.7703965,92.2436769 49.7703965,76.5147373 C49.7703965,60.7857977 52.3985363,45.7122306 69.9742208,45.7122306 Z" id="Shape"></path>
                </g>
                <g id="Ribbon-thicker">
                    <path d="M447.740323,39.7761761 C397.64484,38.6822554 359.845469,126.864141 346.96118,126.864141 C344.918529,126.864141 343.670634,117.183156 342.504409,109.760201 C337.675865,79.0267919 294.520447,72.554942 299.69705,102.68653 C305.048826,133.837753 313.740864,164.912281 346.96118,164.912281 C390.832537,164.912281 416.610737,81.2063729 447.740323,81.2063729 C447.740323,62.9106527 447.740323,49.3210373 447.740323,39.7761761 Z" id="5" fill="#0041DC"></path>
                    <path d="M344.651376,118.853577 C337.866182,100.313309 341.046705,0 281.491283,0 C248.091841,33.6547306 267.11666,69.7584325 271.629563,57.3466735 C275.042227,47.9608814 278.49969,36.4462323 281.491283,36.4462323 C292.267204,36.4462323 294.456409,72.5342116 299.654095,102.672563 C305.027667,133.830778 313.755105,164.912281 347.110715,164.912281 C364.936338,164.912281 379.787033,151.201866 393.222719,134.87736 C359.991141,159.099704 352.464594,140.202878 344.651376,118.853577 Z" id="4" fill="#5BCA13"></path>
                    <path d="M325.945676,33.2757148 C317.493694,14.3861759 304.03061,0 281.641836,0 C214.630801,0 218.201109,158.151012 210.61059,158.151012 C210.139043,158.151012 209.785267,143.85762 208.677019,136.090614 C205.347889,112.758845 154.666922,211.088281 210.656257,211.088281 C245.549764,211.088281 252.733784,156.420271 259.804041,109.640338 C264.381631,79.3529841 272.012498,53.8283199 277.855041,44.981624 C289.983578,26.6167666 310.581232,6.48300877 325.945676,33.2757148 Z" id="3" fill="#0041DC"></path>
                    <path d="M210.225886,147.04258 C208.440615,136.133194 204.576746,65.497076 154.541181,65.497076 C122.253709,65.497076 107.409089,92.4295752 94.9059899,128.717114 C69.0446634,203.774013 47.3200933,315.840856 15.5097972,304.198936 C15.5097972,304.198936 10.3398648,317.177997 0,343.136119 C7.69605362,345.957654 14.5410629,347.368421 20.5350279,347.368421 C70.821308,347.368421 94.9765923,273.232006 114.646305,206.976592 C130.163456,154.708656 143.927169,101.578395 152.866104,101.578395 C177.290707,101.578395 154.541181,211.088281 210.656257,211.088281 C233.867812,211.088281 244.865389,186.747264 251.708938,156.703941 C240.303633,181.047796 217.031209,188.628371 210.225886,147.04258 Z" id="2" fill="#5BCA13"></path>
                    <path d="M199.511232,100.67451 C191.964075,82.235501 178.572706,65.497076 154.260072,65.497076 C122.031331,65.497076 107.213714,92.4295752 94.7333571,128.717114 C68.9190721,203.774013 47.2340186,315.840856 15.4815851,304.198936 C15.4815851,304.198936 10.3210567,317.177997 0,343.136119 C7.6820546,345.957654 14.5146129,347.368421 20.497675,347.368421 C70.692485,347.368421 94.8038311,273.232006 114.437765,206.976592 C127.663402,162.346205 139.612922,121.020797 148.377689,109.896555 C155.64372,100.67451 178.572706,69.4540689 199.511232,100.67451 Z" id="1" fill="#0041DC"></path>
                </g>
                <g id="MPASS" transform="translate(483.799946, 33.226545)" fill="#141414" fill-rule="nonzero">
                    <polygon id="Path" points="96.4053209 0.976269644 87.6998237 0.976269644 48.6862992 82.0066501 8.7054972 0.976269644 0 0.976269644 0 116.826934 8.7054972 116.826934 8.7054972 21.3152206 44.1723377 92.2574813 52.8778349 92.2574813 87.6998237 21.3152206 87.6998237 116.826934 96.4053209 116.826934"></polygon>
                    <path d="M131.872161,0.976269644 L131.872161,116.826934 L140.577659,116.826934 L140.577659,67.6880286 L173.948731,67.6880286 C193.777919,67.6880286 208.609507,55.4846581 208.609507,34.3321491 C208.609507,13.1796402 193.777919,0.976269644 173.948731,0.976269644 L131.872161,0.976269644 Z M172.981454,8.78642679 C188.941532,8.78642679 199.90401,16.9220072 199.90401,34.3321491 C199.90401,51.7422911 188.941532,59.8778715 172.981454,59.8778715 L140.577659,59.8778715 L140.577659,8.78642679 L172.981454,8.78642679 Z" id="Shape"></path>
                    <path d="M260.197639,0.976269644 L252.459419,0.976269644 L210.221636,116.826934 L219.571985,116.826934 L229.567186,88.677826 L283.089872,88.677826 L293.085073,116.826934 L302.435421,116.826934 L260.197639,0.976269644 Z M256.328529,12.6915054 L280.349253,80.8676688 L232.307805,80.8676688 L256.328529,12.6915054 Z" id="Shape"></path>
                    <path d="M351.121721,0 C329.035552,0 315.493667,12.3660822 315.493667,31.7287634 C315.493667,41.003325 318.556712,48.1626358 324.52159,53.2066956 C329.51919,57.599909 336.290133,60.2032947 344.99563,61.5049875 L358.376302,63.6202384 C367.565437,65.0846429 370.950909,66.2236242 374.981231,69.8032795 C379.33398,73.5456465 381.268535,79.0778411 381.268535,86.0744402 C381.268535,101.20662 369.983631,109.993047 351.766572,109.993047 C338.063475,109.993047 329.51919,106.738814 319.201564,96.3252715 L313.075474,102.508313 C323.554313,113.084567 334.355578,117.803204 351.282933,117.803204 C375.303657,117.803204 389.974032,105.27441 389.974032,85.749017 C389.974032,76.3117438 386.266135,68.8270099 380.140045,63.4575268 C374.820018,58.9016018 370.306057,57.1117742 359.666005,55.4846581 L346.285333,53.3694072 C339.836817,52.3931375 333.871939,50.115175 329.841616,46.6982313 C325.811293,43.2812875 324.037951,38.0745161 324.037951,31.4033402 C324.037951,16.5965839 333.871939,7.48473393 350.638082,7.48473393 C364.179966,7.48473393 371.756973,11.7152357 378.527915,18.2237 L384.170367,12.5287938 C374.33638,3.90507857 365.308457,0 351.121721,0 Z" id="Path"></path>
                    <path d="M444.947635,0 C422.861466,0 409.319581,12.3660822 409.319581,31.7287634 C409.319581,41.003325 412.382627,48.1626358 418.347505,53.2066956 C423.345105,57.599909 430.116047,60.2032947 438.821544,61.5049875 L452.202216,63.6202384 C461.391352,65.0846429 464.776823,66.2236242 468.807146,69.8032795 C473.159894,73.5456465 475.094449,79.0778411 475.094449,86.0744402 C475.094449,101.20662 463.809545,109.993047 445.592486,109.993047 C431.889389,109.993047 423.345105,106.738814 413.027478,96.3252715 L406.901388,102.508313 C417.380227,113.084567 428.181492,117.803204 445.108848,117.803204 C469.129572,117.803204 483.799946,105.27441 483.799946,85.749017 C483.799946,76.3117438 480.092049,68.8270099 473.965959,63.4575268 C468.645933,58.9016018 464.131971,57.1117742 453.491919,55.4846581 L440.111248,53.3694072 C433.662731,52.3931375 427.697853,50.115175 423.667531,46.6982313 C419.637208,43.2812875 417.863866,38.0745161 417.863866,31.4033402 C417.863866,16.5965839 427.697853,7.48473393 444.463996,7.48473393 C458.005881,7.48473393 465.582887,11.7152357 472.35383,18.2237 L477.996282,12.5287938 C468.162294,3.90507857 459.134371,0 444.947635,0 Z" id="Path"></path>
                </g>
            </g>
            <g id="IDENTIFIKATION" transform="translate(484.573503, 179.673321)" fill="#454850" fill-rule="nonzero">
                <polygon id="Path" points="4.83003917 1.738925 0 1.738925 0 47.9128857 4.83003917 47.9128857"></polygon>
                <path d="M18.0832504,1.738925 L18.0832504,47.9128857 L34.4582315,47.9128857 C39.8270778,47.9128857 43.7866019,46.4213111 47.0079097,43.0490555 C51.2358761,38.6391829 51.2358761,31.8946718 51.2358761,24.8259053 C51.2358761,17.7571389 51.2358761,11.0126278 47.0079097,6.60275513 C43.7866019,3.23049957 39.8270778,1.738925 34.4582315,1.738925 L18.0832504,1.738925 Z M33.585794,6.14879765 C37.2097652,6.14879765 40.5652942,6.92701047 42.981275,9.5210532 C46.0683616,12.6987556 46.1354722,18.4056496 46.1354722,24.8259053 C46.1354722,31.2461611 46.0683616,36.9530551 42.981275,40.1307575 C40.5652942,42.7248002 37.2097652,43.503013 33.585794,43.503013 L23.1836544,43.503013 L23.1836544,6.14879765 L33.585794,6.14879765 Z" id="Shape"></path>
                <polygon id="Path" points="90.416252 1.738925 63.2913764 1.738925 63.2913764 47.9128857 90.416252 47.9128857 90.416252 43.503013 67.9553821 43.503013 67.9553821 26.8362884 87.1023531 26.8362884 87.1023531 22.4264158 67.9553821 22.4264158 67.9553821 6.14879765 90.416252 6.14879765"></polygon>
                <polygon id="Path" points="132.610503 1.738925 127.82039 1.738925 127.82039 38.6391829 103.995879 1.738925 99.4578772 1.738925 99.4578772 47.9128857 104.24799 47.9128857 104.24799 10.8829256 128.072501 47.9128857 132.610503 47.9128857"></polygon>
                <polygon id="Path" points="174.804754 1.738925 141.652128 1.738925 141.652128 6.14879765 155.646884 6.14879765 155.646884 47.9128857 160.809998 47.9128857 160.809998 6.14879765 174.804754 6.14879765"></polygon>
                <polygon id="Path" points="188.676418 1.738925 183.846379 1.738925 183.846379 47.9128857 188.676418 47.9128857"></polygon>
                <polygon id="Path" points="232.06838 1.738925 204.943504 1.738925 204.943504 47.9128857 209.60751 47.9128857 209.60751 27.5496502 228.754481 27.5496502 228.754481 23.1397776 209.60751 23.1397776 209.60751 6.14879765 232.06838 6.14879765"></polygon>
                <polygon id="Path" points="245.940044 1.738925 241.110005 1.738925 241.110005 47.9128857 245.940044 47.9128857"></polygon>
                <polygon id="Path" points="290.35548 1.738925 284.633075 1.738925 263.920459 28.327863 263.920459 1.738925 259.193256 1.738925 259.193256 47.9128857 263.920459 47.9128857 263.920459 35.0723741 273.250467 23.3343308 286.747877 47.9128857 292.345881 47.9128857 276.422669 19.5729688"></polygon>
                <path d="M317.119216,1.738925 L312.84742,1.738925 L295.359756,47.9128857 L300.766248,47.9128857 L304.570816,37.4718637 L325.329073,37.4718637 L329.133641,47.9128857 L334.540132,47.9128857 L317.119216,1.738925 Z M314.983318,8.74284038 L323.793896,33.1916931 L306.105992,33.1916931 L314.983318,8.74284038 Z" id="Shape"></path>
                <polygon id="Path" points="364.678883 1.738925 331.526257 1.738925 331.526257 6.14879765 345.521013 6.14879765 345.521013 47.9128857 350.684127 47.9128857 350.684127 6.14879765 364.678883 6.14879765"></polygon>
                <polygon id="Path" points="378.550547 1.738925 373.720508 1.738925 373.720508 47.9128857 378.550547 47.9128857"></polygon>
                <path d="M405.366196,0 C400.439903,0 396.44561,1.72062849 393.516463,4.63246132 C389.05617,9.06638859 388.789883,13.1694258 388.789883,23.9564428 C388.789883,34.7434599 389.05617,38.8464971 393.516463,43.2804243 C396.44561,46.1922572 400.439903,47.9128857 405.366196,47.9128857 C410.29249,47.9128857 414.220211,46.1922572 417.149359,43.2804243 C421.609652,38.8464971 421.942509,34.7434599 421.942509,23.9564428 C421.942509,13.1694258 421.609652,9.06638859 417.149359,4.63246132 C414.220211,1.72062849 410.29249,0 405.366196,0 Z M405.366196,4.50010528 C408.56163,4.50010528 411.357635,5.6251316 413.554495,7.80900623 C416.550215,10.8531951 416.883072,14.2944521 416.883072,23.9564428 C416.883072,33.6184336 416.550215,37.0596906 413.554495,40.1038794 C411.357635,42.2877541 408.56163,43.4127804 405.366196,43.4127804 C402.170763,43.4127804 399.374758,42.2877541 397.177897,40.1038794 C394.182178,37.0596906 393.84932,33.6184336 393.84932,23.9564428 C393.84932,14.2944521 394.182178,10.8531951 397.177897,7.80900623 C399.374758,5.6251316 402.170763,4.50010528 405.366196,4.50010528 Z" id="Shape"></path>
                <polygon id="Path" points="467.150635 1.738925 462.360522 1.738925 462.360522 38.6391829 438.536011 1.738925 433.998009 1.738925 433.998009 47.9128857 438.788123 47.9128857 438.788123 10.8829256 462.612633 47.9128857 467.150635 47.9128857"></polygon>
            </g>
        </g>
    </g>
</svg>